<svg xmlns="http://www.w3.org/2000/svg" xmlns:xlink="http://www.w3.org/1999/xlink" width="34" height="34" viewBox="0 0 34 34">
  <defs>
    <clipPath id="clip-path">
      <path id="Trazado_1397" data-name="Trazado 1397" d="M27.119,18c-2.476,0-2.787.011-3.76.055a6.691,6.691,0,0,0-2.213.424,4.664,4.664,0,0,0-2.668,2.666,6.661,6.661,0,0,0-.424,2.213c-.044.973-.055,1.284-.055,3.76s.011,2.786.055,3.759a6.7,6.7,0,0,0,.424,2.213,4.668,4.668,0,0,0,2.666,2.668,6.7,6.7,0,0,0,2.213.423c.973.044,1.283.055,3.759.055s2.786-.011,3.759-.055a6.7,6.7,0,0,0,2.214-.423,4.672,4.672,0,0,0,2.667-2.668,6.758,6.758,0,0,0,.424-2.213c.044-.973.055-1.283.055-3.759s-.011-2.787-.055-3.76a6.755,6.755,0,0,0-.424-2.213,4.665,4.665,0,0,0-2.667-2.667,6.712,6.712,0,0,0-2.215-.424C29.9,18.011,29.593,18,27.116,18ZM26.3,19.643h.818c2.435,0,2.723.009,3.685.052a5.048,5.048,0,0,1,1.693.314,3.021,3.021,0,0,1,1.73,1.731,5.043,5.043,0,0,1,.314,1.693c.044.961.053,1.25.053,3.683s-.01,2.722-.053,3.683a5.042,5.042,0,0,1-.314,1.693,3.024,3.024,0,0,1-1.73,1.729,5.03,5.03,0,0,1-1.693.314c-.961.044-1.25.053-3.685.053s-2.723-.009-3.685-.053a5.064,5.064,0,0,1-1.693-.314,3.022,3.022,0,0,1-1.731-1.73A5.038,5.038,0,0,1,19.7,30.8c-.044-.961-.052-1.25-.052-3.685s.009-2.722.052-3.683a5.048,5.048,0,0,1,.314-1.693,3.022,3.022,0,0,1,1.731-1.731,5.037,5.037,0,0,1,1.693-.314c.841-.038,1.167-.049,2.867-.051Zm5.685,1.514a1.094,1.094,0,1,0,1.094,1.094,1.094,1.094,0,0,0-1.094-1.094Zm-4.867,1.278A4.682,4.682,0,1,0,31.8,27.118a4.683,4.683,0,0,0-4.682-4.683Zm0,1.643a3.039,3.039,0,1,1-3.039,3.039A3.039,3.039,0,0,1,27.119,24.079Z" transform="translate(-18 -18)" fill="#fff"/>
    </clipPath>
  </defs>
  <g id="Grupo_3375" data-name="Grupo 3375" transform="translate(-991 -4930.5)">
    <rect id="Rectángulo_1135" data-name="Rectángulo 1135" width="34" height="34" rx="17" transform="translate(991 4930.5)" fill="#c366ee"/>
    <g id="Grupo_3117" data-name="Grupo 3117" transform="translate(998.825 4938.681)">
      <g id="Grupo_2365" data-name="Grupo 2365" transform="translate(0 0)" clip-path="url(#clip-path)">
        <path id="Trazado_1395" data-name="Trazado 1395" d="M13.354,1C8.2,1,6.691,1.005,6.4,1.03a6.127,6.127,0,0,0-2.434.612A4.93,4.93,0,0,0,2.545,2.68a5.3,5.3,0,0,0-1.43,3A22.287,22.287,0,0,0,1,9.329c0,.983,0,2.277,0,4.013,0,5.152.006,6.658.03,6.951a6.2,6.2,0,0,0,.589,2.386,5.2,5.2,0,0,0,3.372,2.754,8.749,8.749,0,0,0,1.793.237c.306.013,3.423.023,6.542.023s6.238,0,6.537-.019a8.437,8.437,0,0,0,1.858-.243,5.171,5.171,0,0,0,3.372-2.76,6.1,6.1,0,0,0,.582-2.34c.017-.213.024-3.6.024-6.992s-.008-6.774-.025-6.987a6.033,6.033,0,0,0-.594-2.363A4.895,4.895,0,0,0,24.025,2.54a5.332,5.332,0,0,0-3.007-1.427A22.258,22.258,0,0,0,17.374,1Z" transform="translate(-4.23 -4.229)" fill="#fff"/>
        <path id="Trazado_1396" data-name="Trazado 1396" d="M13.354,1C8.2,1,6.691,1.005,6.4,1.03a6.127,6.127,0,0,0-2.434.612A4.93,4.93,0,0,0,2.545,2.68a5.3,5.3,0,0,0-1.43,3A22.287,22.287,0,0,0,1,9.329c0,.983,0,2.277,0,4.013,0,5.152.006,6.658.03,6.951a6.2,6.2,0,0,0,.589,2.386,5.2,5.2,0,0,0,3.372,2.754,8.749,8.749,0,0,0,1.793.237c.306.013,3.423.023,6.542.023s6.238,0,6.537-.019a8.437,8.437,0,0,0,1.858-.243,5.171,5.171,0,0,0,3.372-2.76,6.1,6.1,0,0,0,.582-2.34c.017-.213.024-3.6.024-6.992s-.008-6.774-.025-6.987a6.033,6.033,0,0,0-.594-2.363A4.895,4.895,0,0,0,24.025,2.54a5.332,5.332,0,0,0-3.007-1.427A22.258,22.258,0,0,0,17.374,1Z" transform="translate(-4.23 -4.229)" fill="#fff"/>
      </g>
    </g>
  </g>
</svg>
