<?xml version="1.0" encoding="utf-8"?>
<!-- Generator: Adobe Illustrator 24.1.1, SVG Export Plug-In . SVG Version: 6.00 Build 0)  -->
<svg version="1.1" id="Capa_1" xmlns="http://www.w3.org/2000/svg" xmlns:xlink="http://www.w3.org/1999/xlink" x="0px" y="0px"
	 viewBox="0 0 88.72 88.72" style="enable-background:new 0 0 88.72 88.72;" xml:space="preserve">
<style type="text/css">
	.st0{fill:#4F5760;}
</style>
<g>
	<g>
		<path class="st0" d="M61.97,86.36H26.75c-13.45,0-24.39-10.94-24.39-24.39V26.75C2.36,13.3,13.3,2.36,26.75,2.36h35.22
			c13.45,0,24.39,10.94,24.39,24.39v35.22C86.36,75.42,75.42,86.36,61.97,86.36z M26.75,3.31c-12.93,0-23.44,10.52-23.44,23.44
			v35.22c0,12.93,10.52,23.44,23.44,23.44h35.22c12.93,0,23.44-10.52,23.44-23.44V26.75c0-12.93-10.52-23.44-23.44-23.44H26.75z"/>
	</g>
	<path class="st0" d="M64.49,25.11c-0.46-0.09-0.92-0.16-1.41-0.23L27.6,18.6c-0.95-0.17-2.11-0.27-3.36-0.27
		c-3.25,0-6.12,0.69-6.12,1.53v0.04c0.08,0.54,1.41,1.01,3.06,1.27l23.53,4.15c8,1.42,14.52,7.1,17.15,14.61
		c0.4,0.07,0.81,0.1,1.23,0.1c4.16,0,7.52-3.37,7.52-7.52C70.61,28.83,67.98,25.77,64.49,25.11z"/>
	<g>
		<g>
			<path class="st0" d="M27.6,48.97c-0.95-0.17-2.11-0.27-3.36-0.27c-3.25,0-6.12,0.69-6.12,1.53l0,0.1
				c0.08,0.52,1.28,0.96,2.79,1.23l18.29,3.22c0.47,0.09,0.96,0.14,1.46,0.14c2.29,0,4.34-1.02,5.72-2.63L27.6,48.97z"/>
			<path class="st0" d="M64.49,55.48c-0.46-0.09-0.92-0.16-1.41-0.23l-1.32-0.23c-2.17,5.93-6.78,10.68-12.61,13.05l12.62,2.22
				c0.43,0.08,0.87,0.11,1.31,0.11c4.16,0,7.52-3.37,7.52-7.52C70.61,59.2,67.98,56.14,64.49,55.48z"/>
		</g>
	</g>
	<path class="st0" d="M19.06,21.64c0.54,0.18,1.19,0.33,1.95,0.45l23.53,4.15c10.22,1.82,17.63,10.68,17.63,21.08
		c0,11.81-9.61,21.42-21.41,21.42c-1.37,0-2.74-0.13-4.1-0.39l-14.74-2.58l0-0.02l-0.85-0.13c-1.14-0.18-1.76-0.42-2.01-0.55
		l-0.01-12.98c0.47,0.16,1.03,0.29,1.68,0.41l18.27,3.22c0.54,0.11,1.09,0.16,1.65,0.16c4.68,0,8.48-3.8,8.48-8.48
		c0-4.13-2.95-7.65-7.01-8.35l-21.1-3.72c-1.03-0.19-1.69-0.45-1.97-0.61L19.06,21.64 M18.11,19.84l0,15.18
		c0,0.45,1.27,0.96,2.74,1.24l21.11,3.72c3.54,0.62,6.23,3.7,6.23,7.42c0,4.16-3.37,7.53-7.53,7.53c-0.5,0-0.99-0.05-1.46-0.14
		l-18.29-3.23c-1.56-0.28-2.8-0.74-2.8-1.28l0.01,15.07c0,0.49,1.19,0.95,2.81,1.2l0,0.01l15.57,2.73c1.38,0.27,2.8,0.41,4.26,0.41
		c12.35,0,22.36-10.01,22.36-22.36c0-11.01-7.94-20.15-18.41-22.02l-23.53-4.15C19.48,20.89,18.11,20.4,18.11,19.84L18.11,19.84z"/>
</g>
</svg>
