<?xml version="1.0" encoding="utf-8"?>
<!-- Generator: Adobe Illustrator 24.1.1, SVG Export Plug-In . SVG Version: 6.00 Build 0)  -->
<svg version="1.1" id="Capa_1" xmlns="http://www.w3.org/2000/svg" xmlns:xlink="http://www.w3.org/1999/xlink" x="0px" y="0px"
	 viewBox="0 0 34.26 24.53" style="enable-background:new 0 0 34.26 24.53;" xml:space="preserve">
<style type="text/css">
	.st0{fill:#404551;}
</style>
<path class="st0" d="M30.48,11.81l1.69-1.69c0.98-0.98,0.98-2.56,0-3.54c-0.98-0.98-2.56-0.98-3.54,0l-1.69,1.69
	c-2.11-1.55-4.6-2.61-7.31-3.02v-2.4c0-1.38-1.12-2.5-2.5-2.5s-2.5,1.12-2.5,2.5v2.4c-2.71,0.41-5.19,1.47-7.31,3.02L5.63,6.59
	c-0.98-0.98-2.56-0.98-3.54,0c-0.98,0.98-0.98,2.56,0,3.54l1.69,1.69c-2.05,2.76-3.27,6.17-3.27,9.86c0,1.38,1.12,2.5,2.5,2.5
	s2.5-1.12,2.5-2.5c0-6.41,5.21-11.62,11.62-11.62s11.62,5.21,11.62,11.62c0,1.38,1.12,2.5,2.5,2.5s2.5-1.12,2.5-2.5
	C33.75,17.98,32.52,14.58,30.48,11.81z"/>
</svg>
