<svg xmlns="http://www.w3.org/2000/svg" width="49" height="49" viewBox="0 0 49 49">
  <g id="Grupo_3397" data-name="Grupo 3397" transform="translate(-8260 -293)">
    <g id="Grupo_3395" data-name="Grupo 3395" transform="translate(5.689 5.689)">
      <circle id="Elipse_31" data-name="Elipse 31" cx="10.5" cy="10.5" r="10.5" transform="translate(8268.311 301.311)" fill="#fff"/>
      <circle id="Elipse_32" data-name="Elipse 32" cx="2.5" cy="2.5" r="2.5" transform="translate(8276.311 293.311)" fill="#fff"/>
      <circle id="Elipse_33" data-name="Elipse 33" cx="2.5" cy="2.5" r="2.5" transform="translate(8276.311 325.311)" fill="#fff"/>
      <circle id="Elipse_34" data-name="Elipse 34" cx="2.5" cy="2.5" r="2.5" transform="translate(8297.311 309.311) rotate(90)" fill="#fff"/>
      <circle id="Elipse_35" data-name="Elipse 35" cx="2.5" cy="2.5" r="2.5" transform="translate(8265.311 309.311) rotate(90)" fill="#fff"/>
      <circle id="Elipse_36" data-name="Elipse 36" cx="2.687" cy="2.687" r="2.687" transform="translate(8294.013 323.212) rotate(135)" fill="#fff"/>
      <circle id="Elipse_37" data-name="Elipse 37" cx="2.687" cy="2.687" r="2.687" transform="translate(8271.21 300.409) rotate(135)" fill="#fff"/>
      <circle id="Elipse_38" data-name="Elipse 38" cx="2.687" cy="2.687" r="2.687" transform="translate(8290.212 296.609) rotate(45)" fill="#fff"/>
      <circle id="Elipse_39" data-name="Elipse 39" cx="2.687" cy="2.687" r="2.687" transform="translate(8267.41 319.411) rotate(45)" fill="#fff"/>
    </g>
    <rect id="Rectángulo_1628" data-name="Rectángulo 1628" width="49" height="49" transform="translate(8260 293)" fill="none"/>
  </g>
</svg>
