<svg xmlns="http://www.w3.org/2000/svg" width="32" height="32" viewBox="0 0 32 32">
  <g id="Grupo_3377" data-name="Grupo 3377" transform="translate(-1099 -4931.5)">
    <rect id="Rectángulo_1608" data-name="Rectángulo 1608" width="32" height="32" rx="16" transform="translate(1099 4931.5)" fill="#c366ee"/>
    <path id="Trazado_7117" data-name="Trazado 7117" d="M5.749,14.881A10.616,10.616,0,0,0,16.433,4.2c0-.161,0-.322-.007-.483A7.65,7.65,0,0,0,18.3,1.765a7.611,7.611,0,0,1-2.16.593A3.779,3.779,0,0,0,17.8.278a7.463,7.463,0,0,1-2.387.908,3.756,3.756,0,0,0-6.5,2.57,4.154,4.154,0,0,0,.1.857A10.663,10.663,0,0,1,1.267.688,3.77,3.77,0,0,0,2.431,5.7a3.8,3.8,0,0,1-1.7-.469v.051a3.763,3.763,0,0,0,3.01,3.683,3.649,3.649,0,0,1-.989.132,3.716,3.716,0,0,1-.7-.066,3.755,3.755,0,0,0,3.508,2.607A7.532,7.532,0,0,1,.893,13.255,7.228,7.228,0,0,1,0,13.2a10.679,10.679,0,0,0,5.749,1.677" transform="translate(1106.585 4940.126)" fill="#fff"/>
  </g>
</svg>
