<svg xmlns="http://www.w3.org/2000/svg" width="16.431" height="11.867" viewBox="0 0 16.431 11.867">
  <g id="ver-2" transform="translate(-269.565 -65.018)">
    <path id="Trazado_7118" data-name="Trazado 7118" d="M277.781,65.018a8.827,8.827,0,0,0-8.216,5.934,8.655,8.655,0,0,0,16.431,0A8.824,8.824,0,0,0,277.781,65.018Zm0,9.889h0a3.962,3.962,0,1,1,3.734-3.956A3.813,3.813,0,0,1,277.781,74.908Z" fill="#fff"/>
    <path id="Trazado_7119" data-name="Trazado 7119" d="M277.781,68.578a2.378,2.378,0,1,0,2.24,2.374,2.269,2.269,0,0,0-2.24-2.374Z" fill="#fff"/>
  </g>
</svg>
